<svg width="93" height="93" viewBox="0 0 93 93" fill="none" xmlns="http://www.w3.org/2000/svg">
<g filter="url(#filter0_d_52_4)">
<circle cx="46.5" cy="42.5" r="42" stroke="white"/>
<path d="M66 63.5001V35.0001C66 34.6558 65.7656 34.3559 65.4316 34.2724L51 30.6641V26.7501C51 26.4102 50.7715 26.1132 50.4434 26.0253L27.9434 20.0253C27.7185 19.9653 27.4779 20.0133 27.2933 20.1554C27.1084 20.2971 27 20.5168 27 20.7501V63.5001H24V65.0001H69V63.5001H66ZM28.5 21.7249L49.5 27.3243V63.5001H45.75V55.2501C45.75 54.8359 45.4142 54.5001 45 54.5001H33C32.5858 54.5001 32.25 54.8359 32.25 55.2501V63.5001H28.5V21.7249ZM33.75 56.0001H38.25V63.5001H33.75V56.0001ZM39.75 63.5001V56.0001H44.25V63.5001H39.75ZM55.5 63.5001V57.5001H60V63.5001H55.5ZM61.5 63.5001V56.7501C61.5 56.3359 61.1642 56.0001 60.75 56.0001H54.75C54.3358 56.0001 54 56.3359 54 56.7501V63.5001H51V32.2107L64.5 35.5857V63.5001H61.5Z" fill="white"/>
<path d="M33.75 51.5009H36.75C37.1642 51.5009 37.5 51.165 37.5 50.7509V47.7509C37.5 47.3367 37.1642 47.0009 36.75 47.0009H33.75C33.3358 47.0009 33 47.3367 33 47.7509V50.7509C33 51.165 33.3358 51.5009 33.75 51.5009ZM34.5 48.5009H36V50.0009H34.5V48.5009Z" fill="white"/>
<path d="M41.25 51.5009H44.25C44.6642 51.5009 45 51.165 45 50.7509V47.7509C45 47.3367 44.6642 47.0009 44.25 47.0009H41.25C40.8358 47.0009 40.5 47.3367 40.5 47.7509V50.7509C40.5 51.165 40.8358 51.5009 41.25 51.5009ZM42 48.5009H43.5V50.0009H42V48.5009Z" fill="white"/>
<path d="M56.25 48.5009H53.25C52.8358 48.5009 52.5 48.8367 52.5 49.2509V52.2509C52.5 52.665 52.8358 53.0009 53.25 53.0009H56.25C56.6642 53.0009 57 52.665 57 52.2509V49.2509C57 48.8367 56.6642 48.5009 56.25 48.5009ZM55.5 51.5009H54V50.0009H55.5V51.5009Z" fill="white"/>
<path d="M62.25 48.5009H59.25C58.8358 48.5009 58.5 48.8367 58.5 49.2509V52.2509C58.5 52.665 58.8358 53.0009 59.25 53.0009H62.25C62.6642 53.0009 63 52.665 63 52.2509V49.2509C63 48.8367 62.6642 48.5009 62.25 48.5009ZM61.5 51.5009H60V50.0009H61.5V51.5009Z" fill="white"/>
<path d="M56.25 42.5009H53.25C52.8358 42.5009 52.5 42.8367 52.5 43.2509V46.2509C52.5 46.665 52.8358 47.0009 53.25 47.0009H56.25C56.6642 47.0009 57 46.665 57 46.2509V43.2509C57 42.8367 56.6642 42.5009 56.25 42.5009ZM55.5 45.5009H54V44.0009H55.5V45.5009Z" fill="white"/>
<path d="M62.25 42.5009H59.25C58.8358 42.5009 58.5 42.8367 58.5 43.2509V46.2509C58.5 46.665 58.8358 47.0009 59.25 47.0009H62.25C62.6642 47.0009 63 46.665 63 46.2509V43.2509C63 42.8367 62.6642 42.5009 62.25 42.5009ZM61.5 45.5009H60V44.0009H61.5V45.5009Z" fill="white"/>
<path d="M56.25 36.5009H53.25C52.8358 36.5009 52.5 36.8367 52.5 37.2509V40.2508C52.5 40.665 52.8358 41.0008 53.25 41.0008H56.25C56.6642 41.0008 57 40.665 57 40.2508V37.2509C57 36.8367 56.6642 36.5009 56.25 36.5009ZM55.5 39.5009H54V38.0009H55.5V39.5009Z" fill="white"/>
<path d="M62.25 36.5009H59.25C58.8358 36.5009 58.5 36.8367 58.5 37.2509V40.2508C58.5 40.665 58.8358 41.0008 59.25 41.0008H62.25C62.6642 41.0008 63 40.665 63 40.2508V37.2509C63 36.8367 62.6642 36.5009 62.25 36.5009ZM61.5 39.5009H60V38.0009H61.5V39.5009Z" fill="white"/>
<path d="M33.75 45.5009H36.75C37.1642 45.5009 37.5 45.165 37.5 44.7509V41.7509C37.5 41.3367 37.1642 41.0009 36.75 41.0009H33.75C33.3358 41.0009 33 41.3367 33 41.7509V44.7509C33 45.165 33.3358 45.5009 33.75 45.5009ZM34.5 42.5009H36V44.0009H34.5V42.5009Z" fill="white"/>
<path d="M41.25 45.5009H44.25C44.6642 45.5009 45 45.165 45 44.7509V41.7509C45 41.3367 44.6642 41.0009 44.25 41.0009H41.25C40.8358 41.0009 40.5 41.3367 40.5 41.7509V44.7509C40.5 45.165 40.8358 45.5009 41.25 45.5009ZM42 42.5009H43.5V44.0009H42V42.5009Z" fill="white"/>
<path d="M33.75 39.5009H36.75C37.1642 39.5009 37.5 39.165 37.5 38.7509V35.7509C37.5 35.3367 37.1642 35.0009 36.75 35.0009H33.75C33.3358 35.0009 33 35.3367 33 35.7509V38.7509C33 39.165 33.3358 39.5009 33.75 39.5009ZM34.5 36.5009H36V38.0009H34.5V36.5009Z" fill="white"/>
<path d="M41.25 39.5009H44.25C44.6642 39.5009 45 39.165 45 38.7509V35.7509C45 35.3367 44.6642 35.0009 44.25 35.0009H41.25C40.8358 35.0009 40.5 35.3367 40.5 35.7509V38.7509C40.5 39.165 40.8358 39.5009 41.25 39.5009ZM42 36.5009H43.5V38.0009H42V36.5009Z" fill="white"/>
<path d="M33.75 33.5009H36.75C37.1642 33.5009 37.5 33.165 37.5 32.7509V29.7509C37.5 29.3367 37.1642 29.0009 36.75 29.0009H33.75C33.3358 29.0009 33 29.3367 33 29.7509V32.7509C33 33.165 33.3358 33.5009 33.75 33.5009ZM34.5 30.5009H36V32.0009H34.5V30.5009Z" fill="white"/>
<path d="M41.25 33.5009H44.25C44.6642 33.5009 45 33.165 45 32.7509V29.7509C45 29.3367 44.6642 29.0009 44.25 29.0009H41.25C40.8358 29.0009 40.5 29.3367 40.5 29.7509V32.7509C40.5 33.165 40.8358 33.5009 41.25 33.5009ZM42 30.5009H43.5V32.0009H42V30.5009Z" fill="white"/>
</g>
<defs>
<filter id="filter0_d_52_4" x="0" y="0" width="93" height="93" filterUnits="userSpaceOnUse" color-interpolation-filters="sRGB">
<feFlood flood-opacity="0" result="BackgroundImageFix"/>
<feColorMatrix in="SourceAlpha" type="matrix" values="0 0 0 0 0 0 0 0 0 0 0 0 0 0 0 0 0 0 127 0" result="hardAlpha"/>
<feOffset dy="4"/>
<feGaussianBlur stdDeviation="2"/>
<feComposite in2="hardAlpha" operator="out"/>
<feColorMatrix type="matrix" values="0 0 0 0 0 0 0 0 0 0 0 0 0 0 0 0 0 0 0.25 0"/>
<feBlend mode="normal" in2="BackgroundImageFix" result="effect1_dropShadow_52_4"/>
<feBlend mode="normal" in="SourceGraphic" in2="effect1_dropShadow_52_4" result="shape"/>
</filter>
</defs>
</svg>
